<?xml version="1.0" ?><svg id="Layer_1" style="enable-background:new 0 0 74 74;" version="1.1" viewBox="0 0 74 74" xml:space="preserve" xmlns="http://www.w3.org/2000/svg" xmlns:xlink="http://www.w3.org/1999/xlink"><style type="text/css">
	.st0{fill:#5F7C96;}
</style><g><path class="st0" d="M47.1,30.2c-0.3-0.5-0.7-0.9-1.2-1c-1.5-6-6.4-6-8.9-6c-2.5,0-7.4,0-8.9,6c-0.6,0.2-1.1,0.7-1.3,1.3   c-0.7,2.2-0.7,4.4,0,6.5c0.3,0.8,0.9,1.3,1.7,1.4c1.7,4.9,4.3,6.6,6.5,7.5c0.6,0.3,1.3,0.4,2,0.4c0.7,0,1.4-0.1,2-0.4   c2.1-0.9,4.8-2.6,6.5-7.5c0.8-0.1,1.5-0.6,1.7-1.4C48,34.3,48,32.1,47.1,30.2z M43.7,34.4c-0.8,0.1-1.5,0.7-1.7,1.5   c-1.4,5-3.5,5.9-4.6,6.3c-0.3,0.1-0.6,0.1-0.9,0c-1.1-0.5-3.2-1.4-4.6-6.3c-0.2-0.8-0.9-1.3-1.7-1.5c0-0.4,0-0.9,0-1.3   c0.8-0.2,1.4-0.9,1.5-1.7c0.5-3.8,1.9-4.2,5.2-4.2c3.2,0,4.7,0.4,5.2,4.2c0.1,0.9,0.8,1.5,1.6,1.7C43.8,33.5,43.8,33.9,43.7,34.4z"/><path class="st0" d="M68.1,32.1h-2.8C64.4,18.1,53.1,6.8,39,5.8V3c0-1.1-0.9-2-2-2s-2,0.9-2,2v2.8C20.9,6.8,9.6,18.1,8.6,32.1H5.9   c-1.1,0-2,0.9-2,2s0.9,2,2,2h2.8C9.2,44.5,13.4,52,20.1,57c-1.2,2.6-1.9,5.8-2,9.6c0,0.8,0.4,1.5,1.1,1.8C25.1,71.5,31,73,37,73   c6,0,11.9-1.5,17.8-4.6c0.7-0.4,1.1-1.1,1.1-1.8c-0.1-3.8-0.8-7-2-9.6c6.7-5,10.8-12.5,11.4-20.8h2.8c1.1,0,2-0.9,2-2   S69.2,32.1,68.1,32.1z M61.3,32.1h-5.8c-0.9-8.7-7.9-15.6-16.6-16.6V9.8C50.9,10.8,60.4,20.3,61.3,32.1z M37,48.2   c-1.3,0-2.5,0.1-3.6,0.2c-6.5-1.6-11-7.4-11.1-14.2c0,0,0,0,0,0c0,0,0,0,0,0c0-8.1,6.6-14.6,14.7-14.7c0,0,0,0,0,0c0,0,0,0,0,0   c8.1,0,14.7,6.6,14.7,14.7c0,6.8-4.5,12.6-11,14.2C39.5,48.2,38.3,48.2,37,48.2z M35,9.8v5.8c-8.7,0.9-15.6,7.9-16.6,16.6h-5.8   C13.6,20.3,23.1,10.8,35,9.8z M12.7,36.1h5.8C19,41.9,22.3,47,27.1,50c-1.9,0.9-3.5,2.1-4.9,3.6C16.7,49.4,13.2,43.1,12.7,36.1z    M22.1,65.4c0.6-9.4,5-13.2,14.9-13.2c9.9,0,14.2,3.9,14.9,13.2C41.9,70.2,32.1,70.2,22.1,65.4z M51.8,53.6   c-1.3-1.5-2.9-2.7-4.9-3.6c4.8-3,8-8.1,8.6-13.8h5.8C60.8,43.1,57.3,49.4,51.8,53.6z"/></g></svg>