<?xml version="1.0" encoding="UTF-8"?>
<svg width="279px" height="60px" viewBox="0 0 279 60" version="1.1" xmlns="http://www.w3.org/2000/svg" xmlns:xlink="http://www.w3.org/1999/xlink">
    <!-- Generator: Sketch 49.2 (51160) - http://www.bohemiancoding.com/sketch -->
    <title>Artboard</title>
    <desc>Created with Sketch.</desc>
    <defs>
        <radialGradient cx="116.709681%" cy="170.695687%" fx="116.709681%" fy="170.695687%" r="267.033084%" gradientTransform="translate(1.167097,1.706957),scale(0.269767,1.000000),translate(-1.167097,-1.706957)" id="radialGradient-1">
            <stop stop-color="#FCEA0D" offset="0%"></stop>
            <stop stop-color="#FFDD00" offset="37.51%"></stop>
            <stop stop-color="#F8B133" offset="55.49%"></stop>
            <stop stop-color="#F29100" offset="100%"></stop>
        </radialGradient>
        <radialGradient cx="8.78339692%" cy="7.79202767%" fx="8.78339692%" fy="7.79202767%" r="102.054029%" gradientTransform="translate(0.087834,0.077920),scale(1.000000,0.950000),translate(-0.087834,-0.077920)" id="radialGradient-2">
            <stop stop-color="#FCEA0D" offset="0%"></stop>
            <stop stop-color="#FFDD00" offset="37.51%"></stop>
            <stop stop-color="#F8B133" offset="55.49%"></stop>
            <stop stop-color="#F29100" offset="100%"></stop>
        </radialGradient>
        <radialGradient cx="-59.746645%" cy="5.20600955%" fx="-59.746645%" fy="5.20600955%" r="144.74673%" gradientTransform="translate(-0.597466,0.052060),scale(1.000000,0.879640),translate(0.597466,-0.052060)" id="radialGradient-3">
            <stop stop-color="#E5007E" offset="0%"></stop>
            <stop stop-color="#E5007E" offset="37.51%"></stop>
            <stop stop-color="#E5007E" offset="55.49%"></stop>
            <stop stop-color="#E5007E" offset="100%"></stop>
        </radialGradient>
        <radialGradient cx="185.89579%" cy="-235.302021%" fx="185.89579%" fy="-235.302021%" r="644.268398%" gradientTransform="translate(1.858958,-2.353020),scale(0.465707,1.000000),translate(-1.858958,2.353020)" id="radialGradient-4">
            <stop stop-color="#E5007E" offset="0%"></stop>
            <stop stop-color="#E5007E" offset="37.51%"></stop>
            <stop stop-color="#E5007E" offset="55.49%"></stop>
            <stop stop-color="#E5007E" offset="100%"></stop>
        </radialGradient>
        <radialGradient cx="185.89579%" cy="223.923181%" fx="185.89579%" fy="223.923181%" r="644.288863%" gradientTransform="translate(1.858958,2.239232),scale(0.465695,1.000000),translate(-1.858958,-2.239232)" id="radialGradient-5">
            <stop stop-color="#E5007E" offset="0%"></stop>
            <stop stop-color="#E5007E" offset="37.51%"></stop>
            <stop stop-color="#E5007E" offset="55.49%"></stop>
            <stop stop-color="#E5007E" offset="100%"></stop>
        </radialGradient>
        <radialGradient cx="-144.16077%" cy="-144.969719%" fx="-144.16077%" fy="-144.969719%" r="513.336355%" gradientTransform="translate(-1.441608,-1.449697),scale(0.998199,1.000000),translate(1.441608,1.449697)" id="radialGradient-6">
            <stop stop-color="#E5007E" offset="0%"></stop>
            <stop stop-color="#E5007E" offset="37.51%"></stop>
            <stop stop-color="#E5007E" offset="55.49%"></stop>
            <stop stop-color="#E5007E" offset="100%"></stop>
        </radialGradient>
        <radialGradient cx="70.6697926%" cy="-314.57767%" fx="70.6697926%" fy="-314.57767%" r="479.925489%" gradientTransform="translate(0.706698,-3.145777),scale(0.465722,1.000000),translate(-0.706698,3.145777)" id="radialGradient-7">
            <stop stop-color="#F5F5F5" offset="0%"></stop>
            <stop stop-color="#F5F5F5" stop-opacity="0" offset="100%"></stop>
        </radialGradient>
        <radialGradient cx="123.218696%" cy="235.484138%" fx="123.218696%" fy="235.484138%" r="413.64042%" gradientTransform="translate(1.232187,2.354841),scale(0.464506,1.000000),translate(-1.232187,-2.354841)" id="radialGradient-8">
            <stop stop-color="#F5F5F5" offset="0%"></stop>
            <stop stop-color="#F5F5F5" stop-opacity="0" offset="100%"></stop>
        </radialGradient>
        <radialGradient cx="78.5249862%" cy="46.0699519%" fx="78.5249862%" fy="46.0699519%" r="281.160708%" gradientTransform="translate(0.785250,0.460700),scale(0.321481,1.000000),translate(-0.785250,-0.460700)" id="radialGradient-9">
            <stop stop-color="#E5007E" offset="0%"></stop>
            <stop stop-color="#E5007E" offset="37.51%"></stop>
            <stop stop-color="#E5007E" offset="55.49%"></stop>
            <stop stop-color="#E5007E" offset="100%"></stop>
        </radialGradient>
        <radialGradient cx="-1.52539534%" cy="57.0693333%" fx="-1.52539534%" fy="57.0693333%" r="452.080467%" gradientTransform="translate(-0.015254,0.570693),scale(0.307491,1.000000),translate(0.015254,-0.570693)" id="radialGradient-10">
            <stop stop-color="#E30134" offset="0.052083%"></stop>
            <stop stop-color="#E30134" stop-opacity="0" offset="99.95%"></stop>
        </radialGradient>
        <linearGradient x1="-2.95895756%" y1="49.9984941%" x2="105.311672%" y2="49.9984941%" id="linearGradient-11">
            <stop stop-color="#E5007E" stop-opacity="0" offset="0.05008%"></stop>
            <stop stop-color="#E5007E" offset="99.95%"></stop>
        </linearGradient>
    </defs>
    <g id="Artboard" stroke="none" stroke-width="1" fill="none" fill-rule="evenodd">
        <g id="testeocupa-copy" fill-rule="nonzero">
            <path d="M113.5453,46.6240721 C114.005826,47.0824464 113.999972,47.8372991 113.532616,48.2887209 L111.706125,50.0502093 C106.319342,55.3217628 99.7500228,58 92.1835487,58 C84.4087648,58 77.6667485,55.1484447 72.1453201,49.5257854 C67.4756688,44.7741864 64.7525187,39.1078251 64.0241663,32.6458888 C63.9480625,31.9699977 64.4856676,31.3825038 65.1545029,31.3825038 L71.0154713,31.3825038 C71.5755173,31.3825038 72.0350671,31.8090949 72.1184886,32.3732479 C72.7468328,36.6277367 74.655282,40.3771695 77.9033532,43.7645709 C81.9851514,47.819421 86.6562661,49.7904804 92.1835487,49.7904804 C97.5815523,49.7904804 102.16144,47.9475473 106.178843,44.1524261 L107.799463,42.5046622 C108.239012,42.0577099 108.949802,42.053737 109.394716,42.4952265 L113.5453,46.6240721 Z M65.1374283,26.7714464 L71.0120564,26.7714464 C71.57942,26.7714464 72.044824,26.3398892 72.1292212,25.7692802 C72.7673223,21.4656266 74.6674781,17.683914 77.7965152,14.5006208 C81.822699,10.495432 86.6621203,8.46577219 92.1835487,8.46577219 C97.7157097,8.46577219 102.261448,10.3087053 106.076395,14.0973705 L107.844833,15.6979562 C108.289748,16.1007098 108.964925,16.0843216 109.391301,15.6607102 L113.544813,11.5308714 C114.005826,11.0729936 113.999972,10.3176443 113.533104,9.86671918 L111.706125,8.10324426 L111.704174,8.10324426 C106.283242,2.89674718 99.7158737,0.255756009 92.1835487,0.255756009 C84.3424179,0.255756009 77.6008894,3.0725484 72.1453201,8.62766823 C67.3824905,13.4761069 64.7027585,19.0252674 64.0066039,25.5130275 C63.933915,26.1879254 64.4710322,26.7714464 65.1374283,26.7714464 Z M140.46702,50.7206377 L140.46702,56.686457 C140.46702,57.3995941 139.838676,57.9364335 139.146424,57.8301581 C134.53629,57.1239736 130.446686,55.0198217 126.955668,51.5489892 C122.688977,47.2056066 120.516116,41.959877 120.305367,35.5068798 L120.305367,1.41137588 C120.305367,0.773724003 120.813701,0.256749236 121.440094,0.256749236 L127.235691,0.256749236 C127.862084,0.256749236 128.369931,0.773724003 128.369931,1.41137588 L128.369931,35.5431326 C128.564093,39.6049353 130.023237,43.045971 132.705408,45.775856 C134.645567,47.751385 136.947707,49.021226 139.578655,49.5734603 C140.103576,49.6837085 140.46702,50.1748594 140.46702,50.7206377 Z M164.025538,0.355575344 L158.229453,0.355575344 C157.60306,0.355575344 157.095701,0.873046724 157.095701,1.5106986 L157.095701,29.0076975 L156.997644,35.1681893 C156.997644,39.3362673 155.642899,42.740057 152.858768,45.576714 C150.830309,47.6411367 148.491581,48.9720612 145.87722,49.5526025 C145.355226,49.6683135 144.995684,50.1604576 144.995684,50.7042495 L144.995684,56.6973825 C144.995684,57.4090298 145.622077,57.9448759 146.313841,57.8410836 C150.971784,57.1438381 154.988699,55.0302506 158.518257,51.4372512 C162.925447,46.9513404 165.159777,41.4776652 165.159777,35.1676927 L165.159777,1.51020198 C165.159777,0.872550111 164.652418,0.355575344 164.025538,0.355575344 Z M263.943,57.8539956 L258.473771,57.8539956 C258.107399,57.8539956 257.772738,57.6037023 257.611261,57.2083979 L253.202119,46.4383386 C253.040154,46.0435308 252.705981,45.7932375 252.339121,45.7932375 L228.871343,45.7932375 C228.156163,45.7932375 227.692222,44.8894007 228.01176,44.1211395 L230.46123,38.2412343 C230.62417,37.8503994 230.957368,37.6035825 231.320812,37.6035825 L248.091944,37.6035825 C248.803709,37.6035825 249.268626,36.7066983 248.954941,35.9389337 L240.472294,15.1938934 C240.340089,14.8701013 240.341064,14.4906885 240.475709,14.1678896 L243.239351,7.52617924 C243.595477,6.67101061 244.612146,6.67597674 244.962907,7.53412506 L264.806973,56.1898434 C265.119682,56.957608 264.654765,57.8539956 263.943,57.8539956 Z M239.681498,0.110248221 L233.661492,0.110248221 C233.305853,0.110248221 232.981436,0.361038094 232.825326,0.75683914 L210.926945,56.19034 C210.624481,56.957608 211.074762,57.8539956 211.763111,57.8539956 L217.347959,57.8539956 C217.701159,57.8539956 218.023624,57.606682 218.181198,57.2153505 L240.513761,1.78184963 C240.824031,1.01358838 240.37375,0.110248221 239.681498,0.110248221 Z M181.244023,1.26537148 L181.244023,56.6988723 C181.244023,57.3365242 180.736664,57.8539956 180.110271,57.8539956 L174.314186,57.8539956 C173.687306,57.8539956 173.179459,57.3365242 173.179459,56.6988723 L173.179459,1.26537148 C173.179459,0.627719602 173.687306,0.110744835 174.314186,0.110744835 L180.110271,0.110744835 C180.736664,0.110248221 181.244023,0.627222988 181.244023,1.26537148 Z M213.573015,4.96563948 C210.512764,1.74559684 206.694403,0.110744835 202.232573,0.110744835 L186.907414,0.110744835 C186.280533,0.110744835 185.773175,0.627719602 185.773175,1.26537148 L185.773175,7.16563776 C185.773175,7.80328964 186.280533,8.3202644 186.907414,8.3202644 L202.33063,8.3202644 C204.460073,8.3202644 206.201191,9.08355952 207.809128,10.720398 C209.417065,12.357733 210.166882,14.1942102 210.166882,16.4970075 C210.166882,18.9060801 209.427797,20.8274781 207.907185,22.3759194 C206.319738,23.9909068 204.496661,24.7760529 202.330142,24.7760529 L186.906926,24.7760529 C186.280046,24.7760529 185.772687,25.2935243 185.772687,25.9311762 L185.772687,31.8309459 C185.772687,32.4685978 186.280046,32.9855725 186.906926,32.9855725 L202.330142,32.9855725 L202.378927,32.9835861 C207.024674,32.7685524 210.859622,31.0989374 213.790106,28.0090075 C216.779132,24.7517189 218.231934,20.9854013 218.231934,16.4965109 C218.232422,11.9306453 216.706931,8.15737514 213.573015,4.96563948 Z M271.860234,47.9520169 L274.993662,47.9520169 C275.466872,47.9520169 275.857147,47.5740939 275.880076,47.0933719 L278.998868,0.949028607 C279.024236,0.432550453 278.619813,0 278.111966,0 L268.74193,0 C268.234083,0 267.82966,0.433047067 267.855516,0.949028607 L270.97382,47.0933719 C270.996749,47.5745905 271.387025,47.9520169 271.860234,47.9520169 Z M275.828852,53.9789196 L275.828852,57.1294363 C275.828852,57.6101583 275.446382,57.9995034 274.974148,57.9995034 L271.87926,57.9995034 C271.407026,57.9995034 271.024556,57.6101583 271.024556,57.1294363 L271.024556,53.9789196 C271.024556,53.4981976 271.407026,53.1088526 271.87926,53.1088526 L274.974148,53.1088526 C275.445894,53.1088526 275.828852,53.4981976 275.828852,53.9789196 Z" id="Shape" fill="url(#radialGradient-1)"></path>
            <g id="Group">
                <ellipse id="Oval" fill="url(#radialGradient-2)" cx="28.5608644" cy="30.0991525" rx="28.2077542" ry="29.6923729"></ellipse>
                <path d="M29.4438814,18.7555932 L46.9452966,26.6237288 C47.7336356,26.9786441 48.2432542,27.7784746 48.2432542,28.6627119 L48.2432542,31.490339 C48.2432542,32.3740678 47.7336356,33.1744068 46.9452966,33.529322 L29.4438814,41.3979661 C28.851661,41.6638983 28.1884322,41.2184746 28.1884322,40.5549153 L28.1884322,19.5991525 C28.1884322,18.9345763 28.8521441,18.4891525 29.4438814,18.7555932 Z" id="Shape" fill="url(#radialGradient-3)"></path>
                <g transform="translate(6.762712, 10.677966)" id="Shape">
                    <path d="M4.94305932,38.7579661 C4.7015339,38.8677966 4.44648305,38.6374576 4.51894068,38.3750847 C5.08990678,35.8088136 6.88588983,34.4837288 9.38374576,33.9742373 L18.6790932,32.0771186 C18.9182034,32.0283051 19.0220593,32.3755932 18.7993729,32.4762712 L4.94305932,38.7579661 Z" fill="url(#radialGradient-4)"></path>
                    <path d="M4.94305932,0.0844067797 C4.7015339,-0.0249152542 4.44648305,0.204915254 4.51894068,0.467288136 C5.08990678,3.03355932 6.88588983,4.35864407 9.38374576,4.86813559 L18.6790932,6.76525424 C18.9182034,6.8140678 19.0220593,6.46728814 18.7993729,6.36610169 L4.94305932,0.0844067797 Z" fill="url(#radialGradient-5)"></path>
                    <path d="M46.6564322,19.9444068 L43.908839,21.1794915 C43.6537881,21.2944068 43.3683051,21.1027119 43.3683051,20.8164407 L43.3683051,17.9811864 C43.3683051,17.6954237 43.6537881,17.5032203 43.908839,17.6181356 L46.6564322,18.8537288 C47.119678,19.0611864 47.119678,19.7359322 46.6564322,19.9444068 Z" fill="url(#radialGradient-6)"></path>
                    <path d="M43.5774661,19.9215254 L43.5774661,20.8027119 C43.5774661,20.8911864 43.6677966,20.9501695 43.7470169,20.9135593 L46.7506271,19.5635593 C46.8245339,19.5294915 46.8008644,19.4166102 46.7197119,19.4161017 L44.0759746,19.419661 C43.8011186,19.4176271 43.5774661,19.6428814 43.5774661,19.9215254 Z" fill="#E20613" opacity="0.65"></path>
                    <path d="M5.20100847,0.568474576 C5.073,0.510508475 4.93822881,0.632033898 4.97638983,0.770847458 C5.27829661,2.12745763 6.22797458,2.82813559 7.54863559,3.09762712 L12.4627119,4.10084746 C12.5892712,4.12627119 12.644339,3.94271186 12.5264746,3.88932203 L5.20100847,0.568474576 Z" fill="url(#radialGradient-7)" opacity="0.25"></path>
                    <path d="M5.56619492,37.8884746 C5.40823729,37.9591525 5.23482203,37.8142373 5.27829661,37.6469492 C5.61160169,36.0137288 7.23368644,34.9032203 8.88040678,34.5655932 L15.0093559,33.3101695 C15.1668305,33.2781356 15.2417034,33.4977966 15.095822,33.5633898 L5.56619492,37.8884746 Z" fill="url(#radialGradient-8)" opacity="0.25"></path>
                    <path d="M18.857339,19.3983051 C18.857339,19.62 18.6220932,19.640339 18.6220932,19.640339 L6.14875424,22.300678 C3.68761017,22.7725424 1.13758475,20.5027119 1.13758475,20.5027119 C0.2565,19.8981356 0.410110169,19.3983051 0.410110169,19.3983051 C0.410110169,19.3983051 0.256983051,18.8989831 1.13758475,18.2938983 C1.13758475,18.2938983 3.68761017,16.0245763 6.14875424,16.4959322 L18.6220932,19.1572881 C18.6220932,19.1577966 18.857339,19.1766102 18.857339,19.3983051 Z" fill="url(#radialGradient-9)"></path>
                    <path d="M15.0050085,19.579322 L6.55934746,21.3391525 C5.99176271,21.4571186 5.4435,21.5201695 4.91794068,21.5201695 C3.90981356,21.5201695 2.53698305,20.659322 1.67280508,20.0344068 C1.23854237,19.719661 1.23805932,19.0927119 1.67232203,18.7779661 C2.53505085,18.1520339 3.9064322,17.2769492 4.91890678,17.2769492 C5.4444661,17.2769492 5.99224576,17.34 6.55934746,17.4584746 L15.0069407,19.2188136 C15.0141864,19.219322 15.0262627,19.2238983 15.0412373,19.2315254 C15.1909831,19.3083051 15.1789068,19.5289831 15.0166017,19.5767797 C15.0122542,19.5783051 15.0083898,19.5788136 15.0050085,19.579322 Z" fill="url(#radialGradient-10)" opacity="0.75"></path>
                    <path d="M41.4810254,18.3686441 L41.4810254,20.8118644 C41.4810254,21.6966102 40.9714068,22.4964407 40.1825847,22.8518644 L22.6811695,30.72 C22.0894322,30.9864407 21.4257203,30.5405085 21.4257203,29.8774576 L21.4257203,24.3864407 C21.4257203,21.6233898 23.6062119,18.3691525 26.295839,18.3691525 L41.4810254,18.3691525 L41.4810254,18.3686441 Z" fill="#E30134" opacity="0.85"></path>
                    <path d="M41.4810254,19.3840678 L41.4810254,20.8118644 C41.4810254,21.6966102 40.9714068,22.4964407 40.1825847,22.8518644 L22.6811695,30.72 C22.0894322,30.9864407 21.4257203,30.5405085 21.4257203,29.8774576 L21.4257203,29.3318644 C21.4257203,23.8377966 25.7620678,19.3845763 31.1104068,19.3845763 L41.4810254,19.3845763 L41.4810254,19.3840678 Z" fill="url(#linearGradient-11)" opacity="0.75"></path>
                    <path d="M22.220822,29.1132203 C22.2188898,29.6476271 22.7434831,30.0122034 23.2217034,29.8088136 L40.2463475,22.1079661 C40.4352203,22.0276271 40.3574492,21.7352542 40.1555339,21.7652542 L25.9673644,24.6544068 C23.8221356,24.9772881 22.2290339,26.8738983 22.220822,29.1132203 Z" fill="#E20613" opacity="0.65"></path>
                </g>
            </g>
        </g>
    </g>
</svg>