<svg xmlns="http://www.w3.org/2000/svg" viewBox="0 0 421.594 421.594">
    <path d="m94.84375 105.214844-38.238281-38.234375c-34.617188 36.972656-54.71875 85.203125-56.605469 135.820312h54.101562c1.828126-36.273437 16.234376-70.777343 40.742188-97.585937zm0 0"></path>
    <path d="m106.210938 93.957031c26.667968-23.972656 60.769531-38.042969 96.582031-39.851562v-54.105469c-50.15625 1.871094-97.984375 21.628906-134.839844 55.699219zm0 0"></path>
    <path d="m94.394531 315.882812c-24.238281-26.738281-38.472656-61.039062-40.289062-97.082031h-54.10156275c1.87890575 50.382813 21.80859375 98.414063 56.15234375 135.328125zm0 0"></path>
    <path d="m218.792969 54.105469c36.046875 1.820312 70.351562 16.054687 97.089843 40.292969l38.242188-38.242188c-36.914062-34.347656-84.945312-54.277344-135.332031-56.15625zm0 0"></path>
    <path d="m367.488281 202.800781h54.101563c-1.878906-50.386719-21.808594-98.417969-56.152344-135.332031l-38.242188 38.242188c24.238282 26.742187 38.476563 61.042968 40.292969 97.089843zm0 0"></path>
    <path d="m210.792969 351.691406c77.691406 0 140.894531-63.199218 140.894531-140.894531s-63.203125-140.898437-140.894531-140.898437c-77.691407 0-140.890625 63.210937-140.890625 140.902343 0 77.691407 63.203125 140.890625 140.890625 140.890625zm-45.527344-181.644531c0-.125 0-.246094 0-.371094 0-25.144531 20.382813-45.53125 45.53125-45.53125 25.144531 0 45.53125 20.386719 45.53125 45.53125v.371094c18.871094 1.421875 34.894531 14.371094 40.246094 32.527344 5.351562 18.152343-1.082031 37.722656-16.164063 49.15625-15.082031 11.433593-35.660156 12.347656-51.695312 2.296875-.527344 2.667968-.765625 5.386718-.71875 8.109375 0 9.292969 4.039062 19.222656 15.378906 19.222656 4.542969 0 8.222656 3.679687 8.222656 8.21875 0 4.542969-3.679687 8.222656-8.222656 8.222656h-65.160156c-4.542969 0-8.230469-3.6875-8.230469-8.230469 0-4.546874 3.6875-8.230468 8.230469-8.230468 11.339844 0 15.378906-9.925782 15.378906-19.214844.050781-2.714844-.191406-5.433594-.714844-8.097656-16.035156 10.050781-36.613281 9.136718-51.691406-2.296875-15.078125-11.433594-21.515625-31.003907-16.164062-49.15625 5.351562-18.148438 21.371093-31.097657 40.242187-32.523438zm0 0"></path>
    <path d="m218.792969 421.59375c50.617187-1.886719 98.847656-21.988281 135.820312-56.605469l-38.234375-38.238281c-26.808594 24.507812-61.3125 38.910156-97.585937 40.738281zm0 0"></path>
    <path d="m202.792969 421.59375v-54.101562c-36.042969-1.816407-70.34375-16.054688-97.082031-40.292969l-38.246094 38.246093c36.914062 34.34375 84.945312 54.269532 135.328125 56.148438zm0 0"></path>
    <path d="m367.488281 218.800781c-1.808593 35.8125-15.878906 69.914063-39.851562 96.585938l38.257812 38.253906c34.070313-36.855469 53.832031-84.683594 55.699219-134.839844zm0 0"></path>
    <path fill="#071518" d="m168.695312 244.980469c7.71875.011719 15.132813-3.019531 20.632813-8.433594 2.847656-2.785156 7.308594-3.054687 10.464844-.632813 1.511719 1.15625 2.859375 2.511719 4.011719 4.023438 3.949218 5.191406 5.785156 12.242188 5.785156 22.1875.121094 6.855469-1.503906 13.625-4.722656 19.675781h11.847656c-3.214844-6.050781-4.839844-12.816406-4.722656-19.664062 0-9.949219 1.839843-17 5.785156-22.195313 1.15625-1.511718 2.503906-2.867187 4.015625-4.023437 3.160156-2.421875 7.621093-2.15625 10.464843.628906 9.527344 9.316406 24.109376 11.097656 35.597657 4.351563 11.488281-6.75 17.03125-20.355469 13.535156-33.210938-3.5-12.855469-15.175781-21.773438-28.496094-21.769531-1.46875 0-2.9375.109375-4.390625.324219-2.628906.394531-5.277344-.539063-7.074218-2.496094-1.796876-1.957032-2.507813-4.675782-1.894532-7.257813 2.808594-11.875-1.972656-24.257812-12.039062-31.160156-10.0625-6.898437-23.335938-6.898437-33.398438 0-10.066406 6.902344-14.847656 19.285156-12.039062 31.160156.613281 2.582031-.097656 5.300781-1.894532 7.257813-1.796874 1.957031-4.445312 2.890625-7.074218 2.496094-10.953125-1.648438-21.910156 2.972656-28.375 11.96875-6.464844 8.996093-7.351563 20.855468-2.296875 30.714843 5.054687 9.855469 15.203125 16.054688 26.28125 16.054688zm0 0"></path>
</svg>          